<svg id="Group_240" data-name="Group 240" xmlns="http://www.w3.org/2000/svg" xmlns:xlink="http://www.w3.org/1999/xlink" width="64.377" height="64.377" viewBox="0 0 64.377 64.377">
  <defs>
    <clipPath id="clip-path">
      <path id="Path_19" data-name="Path 19" d="M.06-1023.96H64.436v63.986H.06Z" transform="translate(-0.06 1023.96)" fill="none" clip-rule="evenodd"/>
    </clipPath>
    <clipPath id="clip-path-2">
      <rect id="Rectangle_1" data-name="Rectangle 1" width="64.38" height="64.003" fill="none"/>
    </clipPath>
    <clipPath id="clip-path-3">
      <path id="Path_18" data-name="Path 18" d="M64.38-991.81A32.19,32.19,0,0,0,32.19-1024,32.19,32.19,0,0,0,0-991.81a32.2,32.2,0,0,0,27.16,31.8V-982.5H18.987v-9.3H27.16V-998.9c0-8.068,4.806-12.524,12.159-12.524a49.506,49.506,0,0,1,7.206.629v7.922H42.466c-4,0-5.246,2.481-5.246,5.027v6.038h8.928l-1.427,9.3h-7.5v22.494a32.2,32.2,0,0,0,27.16-31.8" transform="translate(0 1024)" fill="none" clip-rule="evenodd"/>
    </clipPath>
    <clipPath id="clip-path-4">
      <path id="Path_17" data-name="Path 17" d="M0-960H64.38v-64H0Z" transform="translate(0 1024)" fill="none"/>
    </clipPath>
    <clipPath id="clip-path-5">
      <path id="Path_21" data-name="Path 21" d="M327.733-795.079l1.427-9.3h-8.928v-6.038c0-2.546,1.247-5.027,5.246-5.027h4.059v-7.922a49.5,49.5,0,0,0-7.206-.629c-7.353,0-12.159,4.456-12.159,12.524v7.092H302v9.3h8.173v22.494a32.431,32.431,0,0,0,5.03.391,32.432,32.432,0,0,0,5.03-.391v-22.494h7.5" transform="translate(-302 824)" fill="none" clip-rule="evenodd"/>
    </clipPath>
  </defs>
  <g id="Group_16" data-name="Group 16" transform="translate(0 0)" clip-path="url(#clip-path)">
    <g id="Group_15" data-name="Group 15" transform="translate(-0.004 -0.003)" style="isolation: isolate">
      <g id="Group_14" data-name="Group 14" clip-path="url(#clip-path-2)">
        <g id="Group_13" data-name="Group 13" clip-path="url(#clip-path-3)">
          <g id="Group_12" data-name="Group 12" clip-path="url(#clip-path-4)">
            <path id="Path_16" data-name="Path 16" d="M-5-1029H60.009v64.618H-5Z" transform="translate(4.686 1028.686)" fill="#1777f1"/>
          </g>
        </g>
      </g>
    </g>
  </g>
  <g id="Group_17" data-name="Group 17" transform="translate(18.983 12.572)" clip-path="url(#clip-path-5)">
    <path id="Path_20" data-name="Path 20" d="M297-829h28.166v52.435H297Z" transform="translate(-297.314 828.686)" fill="#fff"/>
  </g>
</svg>
